# xmcd
#
# Track frame offsets: 
#        150
#        24635
#        46995
#        53507
#        74265
#        88440
#        110485
#        128972
#        158107
#        181302
#        204965
#        219487
#        234952
#        258492
#        297125
#        312822
#
# Disc length: 4366 seconds
#
# Revision: 6
# Processed by: cddbd v1.5.2PL0 Copyright (c) Steve Scherf et al.
# Submitted via: ExactAudioCopyFreeDBPlugin 1.0
#
DISCID=e0110c10
DTITLE=B.B. King - B.B. King:  King of the Blues [box set]
DYEAR=1992
DGENRE=Blues
TTITLE0=The Thrill is Gone
TTITLE1=Confessin' the Blues
TTITLE2=Nobody Loves Me But My Mother
TTITLE3=Hummingbird
TTITLE4=Ask Me No Questions
TTITLE5=Chains and Things
TTITLE6=Eyesight to the Blind (previously unreleased)
TTITLE7=Niji Baby (previously unreleased)
TTITLE8=Blue Shadows
TTITLE9=Ghetto Woman
TTITLE10=Ain't Nobody Home
TTITLE11=I Got Some Help I Don't Need (single edit) (previously unrele
TTITLE11=ased)
TTITLE12=Five Long Years
TTITLE13=To Know You is to Love You
TTITLE14=I Like to Live the Love
TTITLE15=Don't Make Me Pay for His Mistakes
EXTD=
EXTT0=
EXTT1=
EXTT2=
EXTT3=
EXTT4=
EXTT5=
EXTT6=
EXTT7=
EXTT8=
EXTT9=
EXTT10=
EXTT11=
EXTT12=
EXTT13=
EXTT14=
EXTT15=
PLAYORDER=
